HIERARCHY
ROOT Hips
{
	OFFSET 0.000000 0.000000 0.000000
	CHANNELS 6 Xposition Yposition Zposition Zrotation Yrotation Xrotation 
	JOINT LHipJoint
	{
		OFFSET 0.000000 0.000000 0.000000
		CHANNELS 3 Zrotation Yrotation Xrotation
		JOINT LeftUpLeg
		{
			OFFSET 1.363060 -1.794630 0.839290
			CHANNELS 3 Zrotation Yrotation Xrotation
			JOINT LeftLeg
			{
				OFFSET 2.448110 -6.726130 0.000000
				CHANNELS 3 Zrotation Yrotation Xrotation
				JOINT LeftFoot
				{
					OFFSET 2.562200 -7.039590 0.000000
					CHANNELS 3 Zrotation Yrotation Xrotation
					JOINT LeftToeBase
					{
						OFFSET 0.157640 -0.433110 2.322550
						CHANNELS 3 Zrotation Yrotation Xrotation
						End Site
						{
							OFFSET 0.000000 0.000000 0.000000
						}
					}
				}
			}
		}
	}
	JOINT RHipJoint
	{
		OFFSET 0.000000 0.000000 0.000000
		CHANNELS 3 Zrotation Yrotation Xrotation
		JOINT RightUpLeg
		{
			OFFSET -1.305520 -1.794630 0.839290
			CHANNELS 3 Zrotation Yrotation Xrotation
			JOINT RightLeg
			{
				OFFSET -2.542530 -6.985550 0.000000
				CHANNELS 3 Zrotation Yrotation Xrotation
				JOINT RightFoot
				{
					OFFSET -2.568260 -7.056230 0.000000
					CHANNELS 3 Zrotation Yrotation Xrotation
					JOINT RightToeBase
					{
						OFFSET -0.164730 -0.452590 2.363150
						CHANNELS 3 Zrotation Yrotation Xrotation
						End Site
						{
							OFFSET 0.000000 0.000000 0.000000
						}
					}
				}
			}
		}
	}
}
MOTION
Frames: 22
Frame Time: 0.008333
-0.944221 16.836865 -1.310712 -179.341162 80.296931 -179.893022 -10.865742 4.994542 -0.152620 -4.082883 8.938374 12.308331 -0.603160 2.357863 27.228496 0.900606 4.645106 8.075899 1.040700 -0.000000 -73.145900 9.861852 -0.406413 1.151858 3.657490 -5.915946 -24.377260 1.697224 -0.960765 17.972843 -0.441373 -2.445623 4.701019 -0.951700 -0.000001 -56.012000
-0.770985 16.836364 -1.323106 -177.765773 79.747340 -178.464862 -11.003866 5.066912 -0.110360 -3.269424 9.183631 11.682940 -0.445001 2.455697 28.905858 0.961473 4.697533 9.388372 1.096000 0.000001 -72.698099 9.871892 -0.487453 0.906957 4.008530 -7.079385 -24.185433 1.692156 -1.056352 18.908416 -0.400150 -2.194821 5.103337 -0.893701 0.000000 -55.368100
-0.601342 16.836215 -1.335792 -176.342703 79.171398 -177.174949 -11.150160 5.122581 -0.087140 -2.439137 9.519867 10.912447 -0.282926 2.544627 30.720471 1.051450 4.961590 10.633501 1.203199 0.000000 -71.417500 9.869769 -0.566578 0.674678 4.354643 -8.203601 -23.946187 1.696036 -1.129407 19.725629 -0.375061 -2.027351 5.271926 -0.846000 -0.000000 -54.423100
-0.435414 16.836334 -1.348540 -175.098081 78.567871 -176.047299 -11.299726 5.156732 -0.084286 -1.615999 9.935372 10.014208 -0.121020 2.623298 32.641141 1.172891 5.503946 11.762605 1.393100 0.000000 -69.280601 9.856833 -0.643476 0.461092 4.684457 -9.249284 -23.654089 1.705939 -1.181586 20.429316 -0.368431 -1.968524 5.209643 -0.817500 -0.000000 -53.300900
-0.273058 16.836880 -1.361299 -174.041775 77.928239 -175.084164 -11.448237 5.166324 -0.099449 -0.823139 10.409029 8.991990 0.035760 2.691746 34.648216 1.325726 6.378172 12.698306 1.692100 -0.000000 -65.964500 9.834592 -0.717216 0.272024 4.990177 -10.185793 -23.310956 1.719192 -1.213943 21.025676 -0.382515 -2.038823 4.924562 -0.813400 -0.000000 -51.999400
-0.114396 16.837892 -1.373938 -173.193257 77.255146 -174.309427 -11.589790 5.148756 -0.133971 -0.085262 10.926626 7.880930 0.182242 2.750791 36.688641 1.506580 7.597775 13.383082 2.111500 0.000000 -61.708199 9.806330 -0.787279 0.109264 5.259608 -10.991717 -22.910876 1.731380 -1.229684 21.525522 -0.418693 -2.246672 4.455288 -0.833600 -0.000000 -50.695800
0.040715 16.839645 -1.386556 -172.548796 76.544085 -173.718480 -11.720282 5.104243 -0.185591 0.579341 11.468692 6.697958 0.313760 2.802485 38.724990 1.710047 9.143857 13.740640 2.639400 -0.000000 -56.443300 9.774734 -0.852929 -0.025820 5.485884 -11.655967 -22.453782 1.739138 -1.230836 21.934353 -0.478255 -2.596596 3.842915 -0.875500 0.000000 -49.457800
0.192344 16.842408 -1.399309 -172.100519 75.793088 -173.305136 -11.836208 5.034658 -0.251686 1.155403 12.017098 5.465564 0.427287 2.848868 40.710098 1.929790 10.959930 13.726389 3.239400 0.000000 -50.451600 9.742711 -0.913866 -0.134411 5.663373 -12.178955 -21.938835 1.739517 -1.219928 22.256965 -0.561292 -3.083070 3.137617 -0.933600 -0.000000 -48.370500
0.340598 16.846592 -1.412424 -171.831302 75.001251 -173.054910 -11.935329 4.943525 -0.328439 1.632317 12.553743 4.203920 0.521145 2.891655 42.599509 2.158668 12.957444 13.320613 3.852300 -0.000000 -44.081300 9.712790 -0.970214 -0.219520 5.789090 -12.572176 -21.365693 1.730534 -1.199304 22.494019 -0.666674 -3.693817 2.392696 -1.002400 0.000000 -47.505901
0.485530 16.852599 -1.426137 -171.723115 74.167758 -172.953016 -12.016320 4.835198 -0.411102 2.001518 13.060639 2.930720 0.595209 2.931559 44.354085 2.389790 15.031664 12.545102 4.411200 -0.000000 -37.818500 9.687339 -1.022368 -0.286045 5.861127 -12.858675 -20.735514 1.711476 -1.171271 22.644573 -0.791534 -4.408005 1.657247 -1.076699 -0.000000 -46.909300
0.627223 16.860791 -1.440734 -171.752943 73.292656 -172.979683 -12.079048 4.714688 -0.494639 2.258903 13.523887 1.657417 0.649927 2.968634 45.948203 2.615721 17.072309 11.441543 4.850500 -0.000000 -32.063800 9.668009 -1.071292 -0.339405 5.880454 -13.068105 -20.049650 1.682897 -1.137542 22.703463 -0.931700 -5.200915 0.973891 -1.153800 0.000000 -46.595100
0.765745 16.871483 -1.456474 -171.897789 72.377054 -173.115015 -12.124058 4.586971 -0.574885 2.403697 13.937110 0.389885 0.685917 3.002383 47.369072 2.828637 18.976530 10.063364 5.117200 0.000000 -27.084900 9.655968 -1.118262 -0.385349 5.849672 -13.235291 -19.310347 1.646495 -1.099381 22.664615 -1.081887 -6.044387 0.374123 -1.232400 0.000000 -46.544600
0.901145 16.884814 -1.473584 -172.136512 71.422896 -173.341085 -12.152110 4.456445 -0.649228 2.438404 14.302518 -0.870530 0.703436 3.032056 48.614892 3.020509 20.657168 8.456306 5.174000 -0.000000 -22.913000 9.652052 -1.164633 -0.429192 5.771849 -13.396342 -18.521422 1.604787 -1.057651 22.523125 -1.236200 -6.908594 -0.123788 -1.312900 -0.000000 -46.711200
1.033513 16.900776 -1.492226 -172.444406 70.433713 -173.635783 -12.164623 4.326770 -0.716217 2.369283 14.628614 -2.125221 0.702396 3.056809 49.689681 3.184461 22.050576 6.666996 5.006300 -0.000000 -19.467000 9.656026 -1.211903 -0.474854 5.653525 -13.580341 -17.684911 1.560459 -1.012383 22.272074 -1.389697 -7.770778 -0.511737 -1.397000 0.000000 -47.031899
1.162930 16.919161 -1.512528 -172.799565 69.414492 -173.979370 -12.163009 4.200298 -0.775769 2.203958 14.927900 -3.375906 0.682536 3.075651 50.599482 3.315723 23.121117 4.743725 4.623900 0.000000 -16.608900 9.667323 -1.261156 -0.525173 5.501209 -13.809154 -16.803265 1.515936 -0.963370 21.907607 -1.538551 -8.613794 -0.791991 -1.486600 0.000000 -47.439499
1.289506 16.939673 -1.534536 -173.178684 68.370938 -174.349897 -12.149235 4.078183 -0.828231 1.952158 15.212384 -4.623648 0.644127 3.087639 51.350202 3.412607 23.864174 2.751734 4.065500 0.000000 -14.299900 9.684337 -1.313238 -0.580956 5.324474 -14.089928 -15.876711 1.472855 -0.909825 21.424881 -1.681302 -9.433123 -0.972359 -1.584500 0.000000 -47.866300
1.413362 16.961715 -1.558171 -173.570452 67.309340 -174.737242 -12.124120 3.960715 -0.875555 1.620727 15.495762 -5.867269 0.587426 3.092166 51.949933 3.475563 24.296558 0.738425 3.378400 -0.000000 -12.365301 9.706553 -1.368196 -0.642773 5.128583 -14.426639 -14.909830 1.432034 -0.851933 20.831639 -1.817097 -10.224781 -1.067550 -1.691499 -0.000000 -48.264101
1.534632 16.984762 -1.583331 -173.957408 66.236374 -175.123507 -12.089633 3.847305 -0.919096 1.220181 15.787137 -7.106362 0.514228 3.088986 52.405623 3.508528 24.461729 -1.226856 2.627400 -0.000000 -10.848600 9.731933 -1.425998 -0.708511 4.923580 -14.803594 -13.903195 1.393071 -0.789083 20.131271 -1.948238 -11.001889 -1.091677 -1.810400 0.000000 -48.588000
1.653519 17.008091 -1.609842 -174.335533 65.157788 -175.504262 -12.046244 3.737089 -0.961319 0.755698 16.095254 -8.338860 0.426428 3.078277 52.727209 3.517248 24.414575 -3.107754 1.862900 -0.000001 -9.601100 9.760151 -1.485905 -0.776484 4.713273 -15.207385 -12.863768 1.354953 -0.722105 19.341710 -2.076402 -11.771613 -1.061175 -1.941600 0.000001 -48.821100
1.770217 17.031021 -1.637540 -174.698001 64.078815 -175.871247 -11.994942 3.628883 -1.004081 0.234517 16.424435 -9.564115 0.326961 3.060650 52.925710 3.509566 24.221262 -4.869951 1.128000 0.000001 -8.565700 9.790276 -1.547104 -0.843893 4.503307 -15.615951 -11.798568 1.316110 -0.651816 18.482046 -2.204264 -12.546244 -0.990306 -2.086300 0.000000 -48.955300
1.884875 17.052981 -1.666297 -175.039418 63.003724 -176.216463 -11.936669 3.521405 -1.048872 -0.336649 16.775574 -10.783293 0.219117 3.037046 53.013166 3.494304 23.950592 -6.493549 0.449400 -0.000000 -7.687400 9.821234 -1.608824 -0.907212 4.299559 -16.002196 -10.713672 1.274617 -0.579036 17.570311 -2.334822 -13.339809 -0.889348 -2.246200 0.000000 -48.998900
1.997724 17.073360 -1.695981 -175.363459 61.935336 -176.541366 -11.871044 3.413879 -1.096590 -0.956032 17.146600 -11.996652 0.105784 3.008232 53.002740 3.480134 23.665087 -7.983246 -0.166099 -0.000000 -6.839500 9.853804 -1.669940 -0.964866 4.100149 -16.354133 -9.623860 1.229389 -0.506145 16.639188 -2.467702 -14.146604 -0.769867 -2.418799 0.000000 -48.972400
